<svg viewBox="0 0 40 40" fill="none" xmlns="http://www.w3.org/2000/svg">
  <rect width="40" height="40" rx="8" fill="#111012" />
  <rect x="4" y="4" width="12" height="12" rx="2.5" stroke="#39D353" stroke-width="2.5" />
  <rect x="7.5" y="7.5" width="5" height="5" rx="1" fill="#39D353" />
  <rect x="24" y="4" width="12" height="12" rx="2.5" stroke="#39D353" stroke-width="2.5" />
  <rect x="27.5" y="7.5" width="5" height="5" rx="1" fill="#39D353" />
  <rect x="4" y="24" width="12" height="12" rx="2.5" stroke="#39D353" stroke-width="2.5" />
  <rect x="7.5" y="27.5" width="5" height="5" rx="1" fill="#39D353" />
  <rect x="19.5" y="7.5" width="2.5" height="2.5" rx="0.5" fill="#39D353" />
  <rect x="19.5" y="12" width="2.5" height="2.5" rx="0.5" fill="#39D353" />
  <rect x="19.5" y="19.5" width="5" height="5" rx="1" fill="#39D353" />
  <rect x="7.5" y="19.5" width="2.5" height="2.5" rx="0.5" fill="#39D353" />
  <rect x="12" y="19.5" width="2.5" height="2.5" rx="0.5" fill="#39D353" />
  <rect x="26.5" y="19.5" width="2.5" height="2.5" rx="0.5" fill="#39D353" />
  <rect x="31" y="19.5" width="2.5" height="2.5" rx="0.5" fill="#39D353" />
  <rect x="19.5" y="26.5" width="2.5" height="2.5" rx="0.5" fill="#39D353" />
  <rect x="26.5" y="26.5" width="5" height="5" rx="1" fill="#39D353" />
  <rect x="19.5" y="32.5" width="2.5" height="2.5" rx="0.5" fill="#39D353" />
  <rect x="24" y="32.5" width="2.5" height="2.5" rx="0.5" fill="#39D353" />
  <rect x="29.5" y="32.5" width="5" height="5" rx="1" fill="#39D353" />
</svg>
